<?xml version="1.0" standalone="no"?>
<!DOCTYPE svg PUBLIC "-//W3C//DTD SVG 20010904//EN"
 "http://www.w3.org/TR/2001/REC-SVG-20010904/DTD/svg10.dtd">
<svg version="1.0" xmlns="http://www.w3.org/2000/svg"
 width="512.000000pt" height="512.000000pt" viewBox="0 0 512.000000 512.000000"
 preserveAspectRatio="xMidYMid meet">
<metadata>
Created by potrace 1.11, written by Peter Selinger 2001-2013
</metadata>
<g transform="translate(0.000000,512.000000) scale(0.100000,-0.100000)"
fill="#000000" stroke="none">
<path d="M3454 4752 c-130 -21 -203 -165 -136 -271 9 -14 130 -140 269 -280
139 -140 253 -257 253 -261 0 -4 -423 -430 -940 -948 -877 -877 -940 -942
-940 -974 0 -18 7 -43 15 -55 30 -43 351 -356 374 -364 15 -6 35 -6 55 1 21 7
314 293 906 885 481 482 902 903 936 936 l60 60 260 -259 c142 -143 273 -266
290 -275 35 -18 97 -24 134 -12 43 13 91 56 111 99 18 39 19 80 19 806 0 726
-1 767 -19 806 -19 43 -68 86 -111 100 -23 7 -1492 13 -1536 6z"/>
<path d="M690 4378 c-158 -22 -316 -104 -441 -228 -112 -111 -176 -216 -221
-362 l-23 -73 -2 -1310 c-1 -1224 0 -1315 16 -1390 25 -113 55 -185 111 -268
148 -218 366 -354 600 -374 99 -9 2475 -8 2565 0 353 33 658 322 716 677 8 52
12 231 12 577 0 557 2 543 -65 561 -46 12 -229 7 -256 -7 -12 -6 -27 -21 -33
-33 -8 -15 -12 -170 -13 -527 -2 -539 -3 -546 -53 -645 -31 -61 -123 -155
-183 -187 -108 -57 -20 -53 -1385 -56 -1370 -3 -1312 -5 -1424 52 -60 30 -150
117 -183 177 -66 119 -62 22 -62 1408 0 1030 2 1264 13 1305 51 183 203 319
384 341 29 4 514 7 1079 8 l1028 1 27 28 c27 27 28 30 28 146 0 133 -10 164
-58 181 -38 13 -2082 12 -2177 -2z"/>
</g>
</svg>
