<?xml version="1.0" encoding="UTF-8" standalone="no"?>
<svg
   xmlns:dc="http://purl.org/dc/elements/1.1/"
   xmlns:cc="http://creativecommons.org/ns#"
   xmlns:rdf="http://www.w3.org/1999/02/22-rdf-syntax-ns#"
   xmlns:svg="http://www.w3.org/2000/svg"
   xmlns="http://www.w3.org/2000/svg"
   xmlns:sodipodi="http://sodipodi.sourceforge.net/DTD/sodipodi-0.dtd"
   xmlns:inkscape="http://www.inkscape.org/namespaces/inkscape"
   aria-label="GitHub"
   role="img"
   viewBox="0 0 512 512"
   version="1.1"
   id="svg62"
   sodipodi:docname="github.svg"
   inkscape:version="1.0.2 (e86c8708, 2021-01-15)">
  <metadata
     id="metadata68">
    <rdf:RDF>
      <cc:Work
         rdf:about="">
        <dc:format>image/svg+xml</dc:format>
        <dc:type
           rdf:resource="http://purl.org/dc/dcmitype/StillImage" />
      </cc:Work>
    </rdf:RDF>
  </metadata>
  <defs
     id="defs66" />
  <sodipodi:namedview
     pagecolor="#ffffff"
     bordercolor="#666666"
     borderopacity="1"
     objecttolerance="10"
     gridtolerance="10"
     guidetolerance="10"
     inkscape:pageopacity="0"
     inkscape:pageshadow="2"
     inkscape:window-width="1257"
     inkscape:window-height="803"
     id="namedview64"
     showgrid="false"
     inkscape:zoom="1.2480469"
     inkscape:cx="289.70373"
     inkscape:cy="288.05008"
     inkscape:window-x="1831"
     inkscape:window-y="260"
     inkscape:window-maximized="0"
     inkscape:current-layer="svg62" />
  <path
     id="rect58"
     d="M 78.403285,0.80125196 C 35.856084,0.80125196 1.6025039,35.054832 1.6025039,77.602033 V 436.00047 c 0,42.5472 34.2535801,76.80078 76.8007811,76.80078 h 88.167965 c 0.3602,-5.02536 2.44079,-13 12.03125,-13 13,0 16,-6 16,-12 l -1,-50 c -71,16 -86,-28 -86,-28 -11.999996,-30 -27.999996,-37 -27.999996,-37 -24,-16 1,-16 1,-16 25.999996,2 39.999996,26 39.999996,26 22,39 59,28 74,22 2,-17 9,-28 16,-35 -57,-6 -115.999996,-28 -115.999996,-126 0,-28 9.999996,-51 25.999996,-69 -3,-6 -11,-32 3,-67 0,0 21,-7 70,26 42,-12 86,-12 128,0 49,-33 70,-26 70,-26 14,35 6,61 3,67 16,18 26,41 26,69 0,98 -60,120 -117,126 10,8 18,24 18,48 l -1,70 c 0,6 3,12 16,12 9.59046,0 11.67105,7.97464 12.03125,13 h 88.16797 c 42.5472,0 76.80078,-34.25358 76.80078,-76.80078 V 77.602033 c 0,-42.547201 -34.25358,-76.80078104 -76.80078,-76.80078104 z" />
</svg>
